<?xml version="1.0" encoding="UTF-8" standalone="no"?>
<svg width="100px" height="20px" viewBox="0 0 100 20" version="1.1" xmlns="http://www.w3.org/2000/svg" xmlns:xlink="http://www.w3.org/1999/xlink">
    <!-- Generator: Sketch 3.6.1 (26313) - http://www.bohemiancoding.com/sketch -->
    <title>(logo)-Buttercup-blue</title>
    <desc>Created with Sketch.</desc>
    <defs>
        <rect id="path-1" x="0" y="0" width="100" height="20" rx="3"></rect>
    </defs>
    <g id="Page-1" stroke="none" stroke-width="1" fill="none" fill-rule="evenodd">
        <g id="(logo)-Buttercup-blue">
            <g id="Clipped">
                <g id="Group-2">
                    <mask id="mask-2" fill="white">
                        <use xlink:href="#path-1"></use>
                    </mask>
                    <g id="Rectangle-path"></g>
                    <path d="M0,0 L20.7675873,0 L20.7675873,20 L0,20 L0,0 Z" id="Shape" fill="#555555" mask="url(#mask-2)"></path>
                    <path d="M20.7675873,0 L100,0 L100,20 L20.7675873,20 L20.7675873,0 Z" id="Shape" fill="#00B7AC" mask="url(#mask-2)"></path>
                    <g id="Group" mask="url(#mask-2)" fill="#FFFFFF">
                        <g transform="translate(27.000000, 6.000000)" id="Shape">
                            <path d="M0,0.881777778 L0,0 L2.91140741,0 C3.49906173,0 3.97590123,0.167111111 4.34192593,0.496888889 C4.70795062,0.823111111 4.89012346,1.27111111 4.89012346,1.83733333 C4.89012346,2.21244444 4.81037037,2.53155556 4.64918519,2.79555556 C4.48967901,3.06666667 4.28735802,3.26044444 4.04138272,3.38933333 L4.04138272,3.40977778 C4.39145679,3.51733333 4.6642963,3.73244444 4.86074074,4.056 C5.05634568,4.37511111 5.1545679,4.74311111 5.1545679,5.16 C5.1545679,5.80888889 4.94804938,6.31644444 4.53585185,6.67733333 C4.12281481,7.03466667 3.60148148,7.21511111 2.97185185,7.21511111 L1.24246914,7.21511111 C1.02671605,7.21511111 0.870567901,7.16266667 0.772345679,7.05866667 C0.674123457,6.95466667 0.625432099,6.79111111 0.625432099,6.55822222 L0.625432099,0.881777778 L0,0.881777778 L0,0.881777778 Z M1.5917037,3.024 L2.92064198,3.024 C3.21614815,3.024 3.4537284,2.92355556 3.63506173,2.71822222 C3.81555556,2.51377778 3.90538272,2.25333333 3.90538272,1.93688889 C3.90538272,1.61777778 3.81723457,1.35733333 3.63925926,1.16622222 C3.46212346,0.975111111 3.21614815,0.881777778 2.90217284,0.881777778 L1.5917037,0.881777778 L1.5917037,3.024 L1.5917037,3.024 Z M1.5917037,6.11377778 C1.5917037,6.25955556 1.66306173,6.336 1.80409877,6.336 L3.0197037,6.336 C3.37733333,6.336 3.6585679,6.22488889 3.8625679,6.00266667 C4.0665679,5.77688889 4.16898765,5.48177778 4.16898765,5.10666667 C4.16898765,4.73866667 4.06320988,4.44 3.85249383,4.21422222 C3.64261728,3.98488889 3.36474074,3.87377778 3.0197037,3.87377778 L1.5917037,3.87377778 L1.5917037,6.11377778 L1.5917037,6.11377778 Z"></path>
                            <path d="M7.55555556,0.881777778 L7.55555556,0 L8.53022222,0 C8.74681481,0 8.90296296,0.0524444444 9.00118519,0.156444444 C9.09940741,0.260444444 9.14809877,0.427555556 9.14809877,0.656888889 L9.14809877,4.64977778 C9.14809877,5.18755556 9.29501235,5.608 9.58967901,5.91733333 C9.88434568,6.22311111 10.2797531,6.37955556 10.7750617,6.37955556 C11.2703704,6.37955556 11.6666173,6.22311111 11.9621235,5.91733333 C12.2593086,5.608 12.4070617,5.18488889 12.4070617,4.63911111 L12.4070617,0.656888889 C12.4070617,0.427555556 12.4574321,0.261333333 12.5581728,0.156444444 C12.6589136,0.0515555556 12.8175802,0 13.0333333,0 L13.9987654,0 L13.9987654,0.881777778 L13.5832099,0.881777778 C13.4430123,0.881777778 13.3724938,0.954666667 13.3724938,1.104 L13.3724938,4.69066667 C13.3724938,5.47911111 13.1357531,6.11466667 12.6622716,6.60355556 C12.1887901,7.09244444 11.5641975,7.33955556 10.7884938,7.33955556 C10.0085926,7.33955556 9.37896296,7.09333333 8.89960494,6.60355556 C8.42108642,6.11377778 8.18182716,5.47822222 8.18182716,4.69066667 L8.18182716,1.104 C8.18182716,0.954666667 8.11130864,0.881777778 7.97111111,0.881777778 L7.55555556,0.881777778 L7.55555556,0.881777778 Z"></path>
                            <path d="M15.9506173,1.56177778 L15.9506173,0.614222222 C15.9506173,0.384888889 15.9925926,0.224888889 16.0765432,0.138666667 C16.1621728,0.0453333333 16.3124444,0 16.529037,0 L21.2168395,0 C21.4334321,0 21.5845432,0.0453333333 21.6684938,0.138666667 C21.753284,0.225777778 21.7960988,0.384888889 21.7960988,0.614222222 L21.7960988,1.56177778 L20.938963,1.56177778 L20.938963,1.104 C20.938963,0.954666667 20.8667654,0.881777778 20.7215309,0.881777778 L19.3556543,0.881777778 L19.3556543,7.21511111 L18.3902222,7.21511111 L18.3902222,0.881777778 L17.0193086,0.881777778 C16.8774321,0.881777778 16.8069136,0.954666667 16.8069136,1.104 L16.8069136,1.56266667 L15.9506173,1.56266667 L15.9506173,1.56177778 Z"></path>
                            <path d="M23.5061728,1.56177778 L23.5061728,0.614222222 C23.5061728,0.384888889 23.5489877,0.224888889 23.6329383,0.138666667 C23.7185679,0.0453333333 23.868,0 24.0854321,0 L28.7723951,0 C28.9906667,0 29.1400988,0.0453333333 29.2232099,0.138666667 C29.3088395,0.225777778 29.3524938,0.384888889 29.3524938,0.614222222 L29.3524938,1.56177778 L28.495358,1.56177778 L28.495358,1.104 C28.495358,0.954666667 28.4214815,0.881777778 28.2787654,0.881777778 L26.9112099,0.881777778 L26.9112099,7.21511111 L25.9457778,7.21511111 L25.9457778,0.881777778 L24.5748642,0.881777778 C24.4338272,0.881777778 24.3624691,0.954666667 24.3624691,1.104 L24.3624691,1.56266667 L23.5061728,1.56266667 L23.5061728,1.56177778 Z"></path>
                            <path d="M31.0617284,0.881777778 L31.0617284,0 L35.0686914,0 C35.285284,0 35.4439506,0.0524444444 35.5413333,0.156444444 C35.638716,0.260444444 35.6874074,0.427555556 35.6874074,0.656888889 L35.6874074,1.56355556 L34.8017284,1.56355556 L34.8017284,1.104 C34.8017284,0.954666667 34.7312099,0.881777778 34.5901728,0.881777778 L32.6534321,0.881777778 L32.6534321,3.13866667 L35.0376296,3.13866667 L35.0376296,4.01688889 L32.6534321,4.01688889 L32.6534321,6.11377778 C32.6534321,6.25955556 32.7239506,6.336 32.8649877,6.336 L34.8537778,6.336 C34.9931358,6.336 35.0653333,6.25955556 35.0653333,6.11377778 L35.0653333,5.65155556 L35.9526914,5.65155556 L35.9526914,6.55822222 C35.9526914,6.79111111 35.9031605,6.95377778 35.8049383,7.05866667 C35.7083951,7.16266667 35.5505679,7.21511111 35.3339753,7.21511111 L32.3041975,7.21511111 C32.089284,7.21511111 31.9306173,7.16266667 31.8332346,7.05866667 C31.7358519,6.95466667 31.6871605,6.79111111 31.6871605,6.55822222 L31.6871605,0.881777778 L31.0617284,0.881777778 L31.0617284,0.881777778 Z"></path>
                            <path d="M38.617284,0.881777778 L38.617284,0 L41.5866173,0 C42.1919012,0 42.6821728,0.191111111 43.0557531,0.573333333 C43.4293333,0.952 43.6165432,1.46933333 43.6165432,2.11466667 C43.6165432,2.34755556 43.5888395,2.56266667 43.5359506,2.76355556 C43.4805432,2.96533333 43.4100247,3.13866667 43.3277531,3.27733333 C43.2438025,3.416 43.1455802,3.53777778 43.0356049,3.64888889 C42.9239506,3.75644444 42.8139753,3.84 42.710716,3.89866667 C42.6024198,3.95733333 42.4991605,3.99911111 42.4009383,4.024 L42.4009383,4.04444444 C42.5125926,4.10666667 42.6091358,4.21422222 42.6880494,4.37066667 L43.4998519,6.10311111 C43.5426667,6.2 43.6014321,6.26666667 43.6719506,6.29422222 C43.7475062,6.32177778 43.8474074,6.336 43.9834074,6.336 L44.1076543,6.336 L44.1076543,7.21422222 L43.6350123,7.21422222 C43.3596543,7.21422222 43.1615309,7.17955556 43.0381235,7.11022222 C42.9163951,7.04444444 42.8005432,6.89511111 42.697284,6.66933333 L41.7738272,4.72444444 C41.6881975,4.56088889 41.6017284,4.45688889 41.5160988,4.41155556 C41.4287901,4.36266667 41.2894321,4.33866667 41.0946667,4.33866667 L40.2073086,4.33866667 L40.2073086,7.21333333 L39.2418765,7.21333333 L39.2418765,0.881777778 L38.617284,0.881777778 L38.617284,0.881777778 Z M40.2089877,3.46488889 L41.4632099,3.46488889 C41.8309136,3.46488889 42.1155062,3.34666667 42.3237037,3.11377778 C42.5293827,2.88177778 42.632642,2.56177778 42.632642,2.15555556 C42.632642,1.75288889 42.5293827,1.44 42.3245432,1.21777778 C42.1230617,0.988444444 41.8409877,0.880888889 41.483358,0.880888889 L40.2089877,0.880888889 L40.2089877,3.46488889 L40.2089877,3.46488889 Z"></path>
                            <path d="M45.3333333,3.65955556 C45.3333333,3.14933333 45.420642,2.66666667 45.5960988,2.21511111 C45.7681975,1.76 46.0091358,1.37511111 46.308,1.048 C46.6110617,0.725333333 46.9754074,0.468444444 47.3968395,0.280888889 C47.8199506,0.0933333333 48.2707654,0 48.750963,0 C48.9432099,0 49.1514074,0.0177777778 49.3688395,0.0488888889 C49.5871111,0.0835555556 49.8129383,0.139555556 50.044642,0.218666667 C50.2788642,0.298666667 50.4870617,0.395555556 50.6675556,0.510222222 C50.8530864,0.628444444 51.006716,0.774222222 51.1234074,0.958222222 C51.2434568,1.13866667 51.3022222,1.344 51.3022222,1.56266667 L51.3022222,2.264 L50.4182222,2.264 L50.4182222,1.85066667 C50.4182222,1.66311111 50.326716,1.49333333 50.1411852,1.35022222 C49.9573333,1.20444444 49.7424198,1.10044444 49.4981235,1.03733333 C49.2555062,0.971555556 49.0112099,0.936888889 48.7669136,0.936888889 C48.0751605,0.936888889 47.4975802,1.19022222 47.0324938,1.69688889 C46.5682469,2.2 46.3373827,2.86044444 46.3373827,3.65866667 C46.3373827,4.176 46.445679,4.65155556 46.6589136,5.08888889 C46.8771852,5.51911111 47.1718519,5.86311111 47.5496296,6.11644444 C47.9265679,6.36622222 48.342963,6.49511111 48.7971358,6.49511111 C48.9826667,6.49511111 49.1648395,6.47466667 49.3394568,6.43911111 C49.5182716,6.40088889 49.6769383,6.35555556 49.8129383,6.29688889 C49.9539753,6.24088889 50.0832593,6.17866667 50.2100247,6.10933333 C50.3367901,6.04 50.4442469,5.96711111 50.5315556,5.89422222 C50.6197037,5.82488889 50.6935802,5.75911111 50.7590617,5.70311111 C50.8245432,5.64711111 50.869037,5.59911111 50.9017778,5.56444444 L50.9513086,5.50844444 L51.4676049,6.248 C51.4415802,6.27911111 51.4054815,6.32444444 51.3542716,6.37688889 C51.3047407,6.43288889 51.1939259,6.52977778 51.0184691,6.66488889 C50.8463704,6.80711111 50.6641975,6.93244444 50.4744691,7.03644444 C50.2822222,7.144 50.0354074,7.24088889 49.7264691,7.328 C49.4217284,7.41155556 49.1085926,7.45688889 48.7870617,7.45688889 C48.286716,7.45688889 47.8233086,7.35644444 47.3901235,7.16177778 C46.9586173,6.96711111 46.5951111,6.69688889 46.2945679,6.35644444 C45.9965432,6.016 45.7614815,5.61333333 45.5893827,5.14844444 C45.420642,4.68355556 45.3333333,4.18755556 45.3333333,3.65955556 L45.3333333,3.65955556 Z"></path>
                            <path d="M53.7283951,0.881777778 L53.7283951,0 L54.7039012,0 C54.9204938,0 55.0774815,0.0524444444 55.1748642,0.156444444 C55.2722469,0.260444444 55.3209383,0.427555556 55.3209383,0.656888889 L55.3209383,4.64977778 C55.3209383,5.18755556 55.4703704,5.608 55.763358,5.91733333 C56.0588642,6.22311111 56.4551111,6.37955556 56.9487407,6.37955556 C57.4457284,6.37955556 57.8419753,6.22311111 58.1374815,5.91733333 C58.4329877,5.608 58.5832593,5.18488889 58.5832593,4.63911111 L58.5832593,0.656888889 C58.5832593,0.427555556 58.6311111,0.261333333 58.7326914,0.156444444 C58.8325926,0.0524444444 58.9920988,0 59.2061728,0 L60.173284,0 L60.173284,0.881777778 L59.7585679,0.881777778 C59.6158519,0.881777778 59.5470123,0.954666667 59.5470123,1.104 L59.5470123,4.69066667 C59.5470123,5.47911111 59.3094321,6.11466667 58.8351111,6.60355556 C58.3641481,7.09333333 57.7395556,7.33955556 56.9638519,7.33955556 C56.1831111,7.33955556 55.5534815,7.09333333 55.073284,6.60355556 C54.5947654,6.11377778 54.3555062,5.47822222 54.3555062,4.69066667 L54.3555062,1.104 C54.3555062,0.954666667 54.2833086,0.881777778 54.1439506,0.881777778 L53.7283951,0.881777778 L53.7283951,0.881777778 Z"></path>
                            <path d="M62.1234568,0.881777778 L62.1234568,0 L65.1171358,0 C65.7450864,0 66.2580247,0.208 66.6517531,0.621333333 C67.048,1.03733333 67.2427654,1.58311111 67.2427654,2.25955556 C67.2427654,2.94044444 67.048,3.48888889 66.6525926,3.90844444 C66.2555062,4.33244444 65.7459259,4.544 65.1213333,4.544 L63.714321,4.544 L63.714321,7.21422222 L62.7505679,7.21422222 L62.7505679,0.881777778 L62.1234568,0.881777778 L62.1234568,0.881777778 Z M63.714321,3.66666667 L64.9685432,3.66666667 C65.3689877,3.66666667 65.6838025,3.54133333 65.9146667,3.29155556 C66.1455309,3.04177778 66.2588642,2.69777778 66.2588642,2.26044444 C66.2588642,1.83022222 66.1455309,1.48977778 65.9180247,1.24622222 C65.6905185,1 65.3782222,0.881777778 64.9786173,0.881777778 L63.714321,0.881777778 L63.714321,3.66666667 L63.714321,3.66666667 Z"></path>
                        </g>
                    </g>
                    <path d="M12.75,8.45685 L12.75,7.584075 C12.75,5.71995 11.239125,4.209075 9.375,4.209075 C7.5111,4.209075 6,5.71995 6,7.584075 L6,8.259075 L6,8.709075 L6,15.09075 L11.625,15.09075 C13.489125,15.09075 15,13.53915 15,11.6748 C15,10.205775 14.0604,8.919675 12.75,8.45685 L12.75,8.45685 Z M9.6,11.565 L9.6,12.309075 C9.6,12.4335 9.499425,12.534075 9.375,12.534075 C9.250575,12.534075 9.15,12.4335 9.15,12.309075 L9.15,11.565 C9.0177,11.4867 8.925,11.348775 8.925,11.184075 C8.925,10.93545 9.126375,10.734075 9.375,10.734075 C9.623625,10.734075 9.825,10.93545 9.825,11.184075 C9.825,11.348775 9.7323,11.486925 9.6,11.565 L9.6,11.565 Z M11.85,8.34075 L10.05,8.34075 L6.9,8.34075 L6.9,7.584075 C6.9,6.219225 8.010375,5.109075 9.375,5.109075 C10.739625,5.109075 11.85,6.219225 11.85,7.584075 L11.85,8.34075 L11.85,8.34075 Z" id="Shape" fill="#FFFFFF" mask="url(#mask-2)"></path>
                </g>
            </g>
        </g>
    </g>
</svg>